<?xml version="1.0" encoding="utf-8"?>
<svg xmlns="http://www.w3.org/2000/svg" viewBox="333.6191 154.4876 100 89.6845" width="100px" height="89.6845px"><g transform="matrix(1.6666669845581055, 0, 0, 1.6666669845581055, 333.619140625, 154.4876251220703)" fill="#1d0a5b" id="object-0"><rect fill-opacity="0" stroke-width="2" x="0" y="0" width="60" height="53.81069397858335" class="image-rect" fill="#1d0a5b"/><svg x="0" y="0" width="60" height="53.81069397858335" filtersec="colorsf9886631190" class="image-svg-svg primary" style="overflow: visible;"><svg xmlns="http://www.w3.org/2000/svg" version="1.1" x="0px" y="0px" viewBox="4.84736442565918 12.083972930908203 90.17516326904297 80.8730239868164" enable-background="new 0 0 100 100"><path d="M93.594,62.525c-0.506-0.285-1.096-0.335-1.665-0.134c-1.601,0.567-2.943,3.38-3.623,5.082  C83.07,76.332,77.474,81.5,72.12,82.42c-0.028,0.005-0.053,0.003-0.081,0.008c1.228-36.119-27.347-44.236-34.502-45.693  c3.832-14.599-4.083-23.784-4.433-24.181c-0.364-0.413-0.943-0.572-1.467-0.404c-0.526,0.169-0.903,0.632-0.96,1.181  c-0.156,1.485-1.509,3.188-2.421,4.142c-10.312-2.89-16.787,5.458-16.852,5.545c-0.077,0.101-0.14,0.213-0.186,0.331  c-1.565,3.982,0.519,6.991,1.955,8.135c4.059,4.849,0.721,9.814,0.568,10.034c-8.005,11.719-3.533,24.015-2.968,25.446  c2.113,9.611-4.751,17.675-4.821,17.756c-0.084,0.097-0.155,0.206-0.209,0.322c-1.079,2.302-1.184,4.204-0.31,5.652  c1.176,1.951,3.556,2.117,3.698,2.118c0.715,0.1,1.388,0.145,2.022,0.145c6.451,0,8.727-4.719,8.83-4.94  c0.091-0.197,0.135-0.419,0.128-0.636c-0.001-0.054-0.12-5.407,4.236-10.34c0.625-0.708,1.207-1.427,1.749-2.143  c1.473,4.714,4.585,7.573,7.24,9.211c-3.829,1.171-6.104,3.398-6.149,3.442c-0.11,0.111-0.201,0.24-0.268,0.381  c-0.748,1.566-0.508,2.667-0.177,3.314c0.666,1.3,2.073,1.586,2.231,1.614c0.082,0.014,0.163,0.022,0.246,0.022l36.296-0.002  c0.691,0.037,1.365,0.054,2.024,0.054c23.4-0.001,27.058-22.291,27.089-22.496C95.393,66.008,95.044,63.345,93.594,62.525z   M91.881,69.996c-0.133,0.87-3.506,21.285-26.293,20.104H29.409c-0.087-0.035-0.174-0.089-0.19-0.124  c-0.022-0.044-0.034-0.24,0.114-0.619c1.135-1.003,7.823-6.275,17.195-0.508c0.657,0.402,1.513,0.198,1.916-0.456  c0.402-0.655,0.198-1.512-0.455-1.915c-3.511-2.161-6.724-2.981-9.524-3.061c-0.018-0.005-0.03-0.018-0.049-0.022  c-0.089-0.021-8.778-2.214-10.193-11.596c2.286-3.674,3.397-6.68,3.464-6.861c0.264-0.722-0.109-1.52-0.831-1.784  c-0.723-0.266-1.521,0.107-1.785,0.829c-0.022,0.06-2.242,6.039-6.812,11.215c-4.435,5.023-4.893,10.358-4.93,11.873  c-0.532,0.865-2.696,3.702-7.941,2.971c-0.011-0.001-1.154-0.096-1.57-0.786c-0.34-0.564-0.208-1.579,0.373-2.871  c1.077-1.302,7.628-9.758,5.275-20.144c-0.018-0.076-0.042-0.153-0.072-0.226c-0.049-0.118-4.815-12.003,2.637-22.913  c1.68-2.393,3.667-8.302-0.837-13.541c-0.063-0.073-0.144-0.148-0.222-0.207c-0.241-0.184-2.281-1.852-1.232-4.802  c0.869-1.052,6.191-6.927,14.461-4.189c0.469,0.155,0.99,0.049,1.362-0.281c0.177-0.157,1.027-0.939,1.889-2.067  c0.073,4.925-1.568,10.231-1.588,10.296c-0.23,0.733,0.178,1.514,0.911,1.745c0.139,0.044,0.28,0.065,0.417,0.065  c0.593,0,1.141-0.38,1.328-0.974c0.078-0.247,1.369-4.423,1.658-9.036c1.514,4.012,2.554,9.959,0.265,17.311  c-0.122,0.395-0.063,0.824,0.162,1.171c0.224,0.347,0.593,0.576,1.003,0.625c1.439,0.172,35.059,4.66,33.644,43.279  c-2.571-0.306-4.111-1.553-4.211-1.637c-0.582-0.496-1.456-0.433-1.959,0.15c-0.502,0.583-0.436,1.461,0.145,1.963  c0.15,0.128,3.707,3.127,9.276,2.202c6.324-1.043,12.465-6.556,18.254-16.385c0.037-0.062,0.069-0.127,0.095-0.194  c0.392-0.987,0.908-2.011,1.353-2.722C92.248,66.932,92.133,68.522,91.881,69.996z"/></svg></svg></g></svg>