<?xml version="1.0" encoding="utf-8"?>
<svg xmlns="http://www.w3.org/2000/svg" viewBox="75.0826 97.5168 500 144.7742" width="500px" height="144.774px" preserveAspectRatio="none"><g data-v-0dd9719b="" fill="current" class="icon-text-wrapper icon-svg-group iconsvg" transform="matrix(2.633870124816895, 0, 0, 2.633870124816895, 75.08263397216797, 97.51683044433594)" id="object-0"><g class="iconsvg-imagesvg" transform="translate(0,0)"><g><rect fill="current" fill-opacity="0" stroke-width="2" x="0" y="0" width="60" height="53.81069397858335" class="image-rect"/><svg x="0" y="0" width="60" height="53.81069397858335" filtersec="colorsf9886631190" class="image-svg-svg primary" style="overflow: visible;"><svg xmlns="http://www.w3.org/2000/svg" version="1.1" x="0px" y="0px" viewBox="4.84736442565918 12.083972930908203 90.17516326904297 80.8730239868164" enable-background="new 0 0 100 100"><path d="M93.594,62.525c-0.506-0.285-1.096-0.335-1.665-0.134c-1.601,0.567-2.943,3.38-3.623,5.082  C83.07,76.332,77.474,81.5,72.12,82.42c-0.028,0.005-0.053,0.003-0.081,0.008c1.228-36.119-27.347-44.236-34.502-45.693  c3.832-14.599-4.083-23.784-4.433-24.181c-0.364-0.413-0.943-0.572-1.467-0.404c-0.526,0.169-0.903,0.632-0.96,1.181  c-0.156,1.485-1.509,3.188-2.421,4.142c-10.312-2.89-16.787,5.458-16.852,5.545c-0.077,0.101-0.14,0.213-0.186,0.331  c-1.565,3.982,0.519,6.991,1.955,8.135c4.059,4.849,0.721,9.814,0.568,10.034c-8.005,11.719-3.533,24.015-2.968,25.446  c2.113,9.611-4.751,17.675-4.821,17.756c-0.084,0.097-0.155,0.206-0.209,0.322c-1.079,2.302-1.184,4.204-0.31,5.652  c1.176,1.951,3.556,2.117,3.698,2.118c0.715,0.1,1.388,0.145,2.022,0.145c6.451,0,8.727-4.719,8.83-4.94  c0.091-0.197,0.135-0.419,0.128-0.636c-0.001-0.054-0.12-5.407,4.236-10.34c0.625-0.708,1.207-1.427,1.749-2.143  c1.473,4.714,4.585,7.573,7.24,9.211c-3.829,1.171-6.104,3.398-6.149,3.442c-0.11,0.111-0.201,0.24-0.268,0.381  c-0.748,1.566-0.508,2.667-0.177,3.314c0.666,1.3,2.073,1.586,2.231,1.614c0.082,0.014,0.163,0.022,0.246,0.022l36.296-0.002  c0.691,0.037,1.365,0.054,2.024,0.054c23.4-0.001,27.058-22.291,27.089-22.496C95.393,66.008,95.044,63.345,93.594,62.525z   M91.881,69.996c-0.133,0.87-3.506,21.285-26.293,20.104H29.409c-0.087-0.035-0.174-0.089-0.19-0.124  c-0.022-0.044-0.034-0.24,0.114-0.619c1.135-1.003,7.823-6.275,17.195-0.508c0.657,0.402,1.513,0.198,1.916-0.456  c0.402-0.655,0.198-1.512-0.455-1.915c-3.511-2.161-6.724-2.981-9.524-3.061c-0.018-0.005-0.03-0.018-0.049-0.022  c-0.089-0.021-8.778-2.214-10.193-11.596c2.286-3.674,3.397-6.68,3.464-6.861c0.264-0.722-0.109-1.52-0.831-1.784  c-0.723-0.266-1.521,0.107-1.785,0.829c-0.022,0.06-2.242,6.039-6.812,11.215c-4.435,5.023-4.893,10.358-4.93,11.873  c-0.532,0.865-2.696,3.702-7.941,2.971c-0.011-0.001-1.154-0.096-1.57-0.786c-0.34-0.564-0.208-1.579,0.373-2.871  c1.077-1.302,7.628-9.758,5.275-20.144c-0.018-0.076-0.042-0.153-0.072-0.226c-0.049-0.118-4.815-12.003,2.637-22.913  c1.68-2.393,3.667-8.302-0.837-13.541c-0.063-0.073-0.144-0.148-0.222-0.207c-0.241-0.184-2.281-1.852-1.232-4.802  c0.869-1.052,6.191-6.927,14.461-4.189c0.469,0.155,0.99,0.049,1.362-0.281c0.177-0.157,1.027-0.939,1.889-2.067  c0.073,4.925-1.568,10.231-1.588,10.296c-0.23,0.733,0.178,1.514,0.911,1.745c0.139,0.044,0.28,0.065,0.417,0.065  c0.593,0,1.141-0.38,1.328-0.974c0.078-0.247,1.369-4.423,1.658-9.036c1.514,4.012,2.554,9.959,0.265,17.311  c-0.122,0.395-0.063,0.824,0.162,1.171c0.224,0.347,0.593,0.576,1.003,0.625c1.439,0.172,35.059,4.66,33.644,43.279  c-2.571-0.306-4.111-1.553-4.211-1.637c-0.582-0.496-1.456-0.433-1.959,0.15c-0.502,0.583-0.436,1.461,0.145,1.963  c0.15,0.128,3.707,3.127,9.276,2.202c6.324-1.043,12.465-6.556,18.254-16.385c0.037-0.062,0.069-0.127,0.095-0.194  c0.392-0.987,0.908-2.011,1.353-2.722C92.248,66.932,92.133,68.522,91.881,69.996z"/></svg></svg></g></g><g transform="translate(61,8.844356536865234)"><g data-gra="path-name" fill-rule="" class="tp-name iconsvg-namesvg" transform="translate(0,0)"><g transform="scale(1)"><g><path d="M9.13-12.42C9.52-12.29 9.59-12.12 9.59-11.7L9.59-10 11.81-10.15 11.81-13.86C10.5-14.47 9-14.75 7.71-14.75 4.36-14.75 0.87-12.86 0.87-7.17 0.87-2.2 3.29 0.28 7.71 0.28 9.11 0.28 10.83 0.02 12.03-0.61L12.03-4.38 9.81-4.53 9.81-2.79C9.81-2.38 9.74-2.2 9.35-2.07 8.93-1.94 8.37-1.87 7.76-1.87 4.73-1.81 3.6-3.92 3.6-7.34 3.6-10.63 4.97-12.59 7.71-12.59 8.15-12.59 8.72-12.55 9.13-12.42ZM17.5-11.94C17.5-12.49 17.74-12.62 18.15-12.66L18.87-12.73 18.87-14.49 13.6-14.49 13.6-12.64 14.86-12.57 14.86-4.58C14.86-1.15 16.69 0.28 20.26 0.28 23.58 0.28 25.73-1.37 25.73-4.23L25.73-12.01C25.73-12.44 25.97-12.62 26.37-12.66L27.09-12.73 27.09-14.49 21.92-14.49 21.92-12.64 23.18-12.57 23.18-4.6C23.18-2.81 22.1-1.94 20.35-1.94 18.61-1.94 17.5-2.57 17.5-4.71ZM28.17 0L33.6 0 33.6-1.85 32.18-1.92 32.18-5.71 34.17-5.71C34.93-5.71 35.23-5.38 35.54-4.71L36.56-2.53C36.76-2.09 36.65-1.9 36.15-1.83L35.52-1.77 35.52 0 40.9 0 40.9-1.85 39.66-1.9 38.09-5.32C37.76-6.06 37.44-6.43 36.85-6.65 38.05-7.13 39.46-8.3 39.46-10.48 39.46-13.44 37.44-14.49 34.23-14.49L28.28-14.49 28.28-12.64 29.53-12.57 29.53-2.44C29.53-2 29.26-1.87 28.89-1.83L28.17-1.77ZM32.18-7.78L32.18-12.38 33.77-12.38C35.63-12.38 36.76-12.14 36.76-10.18 36.76-8.63 35.93-7.78 34.08-7.78ZM43.17-2.55C43.17-2 42.95-1.87 42.53-1.83L41.82-1.77 41.82 0 47.09 0 47.09-1.85 45.85-1.92 45.85-11.96C45.85-12.49 46.11-12.62 46.48-12.66L47.2-12.73 47.2-14.49 41.92-14.49 41.92-12.64 43.17-12.57ZM61.4-7.21C61.4-12.75 58.48-14.75 55.24-14.75 52.19-14.75 48.68-12.79 48.68-7.21 48.68-2.24 51.12 0.28 55 0.28 58.81 0.28 61.4-2.22 61.4-7.21ZM51.4-7.32C51.4-9.91 52.32-12.51 55.11-12.51 58.11-12.51 58.7-9.37 58.7-7.15 58.7-4.53 57.92-1.92 55.15-1.92 52.01-1.92 51.4-4.84 51.4-7.32ZM66.44-11.94C66.44-12.49 66.68-12.62 67.09-12.66L67.81-12.73 67.81-14.49 62.54-14.49 62.54-12.64 63.8-12.57 63.8-4.58C63.8-1.15 65.63 0.28 69.21 0.28 72.52 0.28 74.67-1.37 74.67-4.23L74.67-12.01C74.67-12.44 74.91-12.62 75.31-12.66L76.03-12.73 76.03-14.49 70.86-14.49 70.86-12.64 72.13-12.57 72.13-4.6C72.13-2.81 71.04-1.94 69.29-1.94 67.55-1.94 66.44-2.57 66.44-4.71ZM81.45-1.96C80.86-1.96 80.3-2.03 79.88-2.16 79.49-2.29 79.43-2.46 79.43-2.88L79.43-4.21 77.2-4.05 77.2-0.61C78.51 0 79.86 0.28 81.6 0.28 84.61 0.28 86.88-1.29 86.88-4.16 86.88-6.97 84.79-7.87 82.8-8.5 81.17-9 79.9-9.37 79.9-10.72 79.9-12.07 80.91-12.59 82.19-12.59 82.63-12.59 83.19-12.55 83.61-12.42 84-12.29 84.07-12.12 84.07-11.7L84.07-10.44 86.29-10.59 86.29-13.86C84.98-14.47 83.63-14.75 82.19-14.75 79.19-14.75 77.14-13.14 77.14-10.48 77.14-7.69 79.14-6.82 81.3-6.23 82.82-5.82 84.07-5.43 84.07-4.05 84.07-2.42 82.89-1.96 81.45-1.96ZM101.06-12.42C101.45-12.29 101.52-12.12 101.52-11.7L101.52-10 103.74-10.15 103.74-13.86C102.44-14.47 100.93-14.75 99.65-14.75 96.29-14.75 92.8-12.86 92.8-7.17 92.8-2.2 95.22 0.28 99.65 0.28 101.04 0.28 102.76 0.02 103.96-0.61L103.96-4.38 101.74-4.53 101.74-2.79C101.74-2.38 101.67-2.2 101.28-2.07 100.87-1.94 100.3-1.87 99.69-1.87 96.66-1.81 95.53-3.92 95.53-7.34 95.53-10.63 96.9-12.59 99.65-12.59 100.08-12.59 100.65-12.55 101.06-12.42ZM106.53-2.44C106.38-2.03 106.25-1.87 105.88-1.83L105.16-1.77 105.16 0 110.19 0 110.19-1.85 108.89-1.92 109.54-3.84 114.64-3.84 115.1-2.48C115.25-2 115.03-1.87 114.57-1.83L113.74-1.77 113.74 0 119.37 0 119.37-1.85 118.12-1.92 118.1-1.92 113.66-14.49 108.67-14.49 108.67-12.73 110.04-12.59ZM112.09-12.05L112.15-12.05 114.11-5.84 110.06-5.84ZM122.7-2.44C122.7-2 122.48-1.87 122.07-1.83L120.91-1.77 120.91 0 127.06 0 127.06-1.85 125.34-1.92 125.34-12.33 126.82-12.33C127.41-12.33 127.45-12.07 127.45-11.66L127.45-10.63 129.67-10.79 129.67-14.49 118.28-14.49 118.28-10.79 120.5-10.63 120.5-11.66C120.5-12.03 120.54-12.33 121-12.33L122.7-12.33Z" transform="translate(-0.8700000047683716, 14.75)"/></g><g data-gra="path-name-1" fill="current" transform="translate(0,18.030000686645508)"><g transform="scale(1.00202)"><path d="M9.38-12.76C9.79-12.63 9.85-12.45 9.85-12.03L9.85-10.28 12.14-10.44 12.14-14.24C10.79-14.87 9.25-15.16 7.93-15.16 4.48-15.16 0.9-13.21 0.9-7.37 0.9-2.26 3.38 0.29 7.93 0.29 9.36 0.29 11.13 0.02 12.36-0.63L12.36-4.5 10.08-4.66 10.08-2.87C10.08-2.44 10.01-2.26 9.61-2.13 9.18-1.99 8.6-1.93 7.97-1.93 4.86-1.86 3.7-4.03 3.7-7.55 3.7-10.93 5.11-12.94 7.93-12.94 8.38-12.94 8.96-12.9 9.38-12.76ZM27.46-7.41C27.46-13.1 24.45-15.16 21.12-15.16 17.98-15.16 14.38-13.15 14.38-7.41 14.38-2.31 16.89 0.29 20.87 0.29 24.79 0.29 27.46-2.28 27.46-7.41ZM17.18-7.52C17.18-10.19 18.12-12.85 20.98-12.85 24.07-12.85 24.68-9.63 24.68-7.35 24.68-4.66 23.87-1.97 21.03-1.97 17.8-1.97 17.18-4.97 17.18-7.52ZM29.07 0L34.55 0 34.55-1.9 33.1-1.97 33.1-10.44 33.14-10.44 39.62 0 42.24 0 42.24-12.32C42.24-12.79 42.44-12.99 42.77-13.01L43.58-13.08 43.58-14.89 38.12-14.89 38.12-12.99 39.59-12.92 39.59-4.61 39.55-4.61 33.21-14.89 29.18-14.89 29.18-12.99 30.46-12.92 30.46-2.51C30.46-2.06 30.25-1.9 29.87-1.88L29.07-1.81ZM49.31-2.02C48.71-2.02 48.13-2.08 47.7-2.22 47.3-2.35 47.23-2.53 47.23-2.96L47.23-4.32 44.95-4.17 44.95-0.63C46.29 0 47.68 0.29 49.47 0.29 52.56 0.29 54.89-1.32 54.89-4.28 54.89-7.17 52.74-8.08 50.7-8.73 49.02-9.25 47.72-9.63 47.72-11.02 47.72-12.41 48.75-12.94 50.07-12.94 50.52-12.94 51.1-12.9 51.53-12.76 51.93-12.63 52-12.45 52-12.03L52-10.73 54.28-10.88 54.28-14.24C52.94-14.87 51.55-15.16 50.07-15.16 46.98-15.16 44.88-13.5 44.88-10.77 44.88-7.91 46.94-7.01 49.16-6.4 50.72-5.98 52-5.58 52-4.17 52-2.49 50.79-2.02 49.31-2.02ZM60.11-12.27C60.11-12.83 60.35-12.97 60.78-13.01L61.52-13.08 61.52-14.89 56.1-14.89 56.1-12.99 57.4-12.92 57.4-4.7C57.4-1.19 59.28 0.29 62.95 0.29 66.35 0.29 68.57-1.41 68.57-4.34L68.57-12.34C68.57-12.79 68.82-12.97 69.22-13.01L69.96-13.08 69.96-14.89 64.65-14.89 64.65-12.99 65.95-12.92 65.95-4.73C65.95-2.89 64.83-1.99 63.04-1.99 61.25-1.99 60.11-2.64 60.11-4.84ZM81.72 0L81.72-4.43 79.43-4.59 79.43-3.02C79.43-2.6 79.39-2.31 78.92-2.31L75.2-2.31 75.2-12.29C75.2-12.83 75.47-12.97 75.85-13.01L76.59-13.08 76.59-14.89 71.19-14.89 71.19-12.99 72.47-12.92 72.47-2.51C72.47-2.06 72.2-1.93 71.82-1.88L71.08-1.81 71.08 0ZM85.48-2.51C85.48-2.06 85.26-1.93 84.83-1.88L83.64-1.81 83.64 0 89.96 0 89.96-1.9 88.19-1.97 88.19-12.68 89.71-12.68C90.32-12.68 90.36-12.41 90.36-11.98L90.36-10.93 92.65-11.09 92.65-14.89 80.93-14.89 80.93-11.09 83.22-10.93 83.22-11.98C83.22-12.36 83.26-12.68 83.73-12.68L85.48-12.68ZM95.09-2.62C95.09-2.06 94.86-1.93 94.44-1.88L93.7-1.81 93.7 0 99.12 0 99.12-1.9 97.84-1.97 97.84-12.29C97.84-12.83 98.11-12.97 98.49-13.01L99.23-13.08 99.23-14.89 93.81-14.89 93.81-12.99 95.09-12.92ZM100.57 0L106.06 0 106.06-1.9 104.6-1.97 104.6-10.44 104.65-10.44 111.12 0 113.74 0 113.74-12.32C113.74-12.79 113.94-12.99 114.28-13.01L115.09-13.08 115.09-14.89 109.62-14.89 109.62-12.99 111.1-12.92 111.1-4.61 111.05-4.61 104.72-14.89 100.69-14.89 100.69-12.99 101.96-12.92 101.96-2.51C101.96-2.06 101.76-1.9 101.38-1.88L100.57-1.81ZM128.28-5.22C128.28-5.76 128.45-5.91 128.93-5.96L129.44-6 129.44-7.79 123.86-7.79 123.86-5.89 125.59-5.82 125.61-5.82 125.61-2.49C125.16-2.19 124.11-1.95 123.24-1.95 120.5-1.95 119.34-4.08 119.34-7.59 119.34-10.93 120.66-12.94 123.66-12.94 124.31-12.94 124.89-12.9 125.32-12.76 125.72-12.63 125.79-12.45 125.79-12.03L125.79-10.28 128.07-10.44 128.07-14.24C126.73-14.87 125.19-15.16 123.68-15.16 120.46-15.16 116.54-13.21 116.54-7.41 116.54-2.22 119.07 0.27 123.12 0.27 125.21 0.27 127.04-0.31 128.28-1.16Z" transform="translate(-0.9000000357627869, 15.15999984741211)"/></g></g></g></g><g data-gra="path-slogan" fill-rule="" class="tp-slogan iconsvg-slogansvg" fill="current" transform="translate(-0.029998779296875,39.51121139526367)"><g transform="scale(1, 1)"><g transform="scale(1)"><path d="M0.51-3.19C0.51-2.67 0.57-2.20 0.71-1.79C0.85-1.38 1.05-1.03 1.30-0.75C1.55-0.47 1.84-0.26 2.18-0.11C2.52 0.04 2.89 0.12 3.29 0.12C3.70 0.12 4.06 0.04 4.38-0.13C4.70-0.29 4.98-0.51 5.24-0.81L4.78-1.30C4.57-1.08 4.35-0.90 4.12-0.78C3.89-0.65 3.62-0.59 3.31-0.59C3.01-0.59 2.74-0.65 2.49-0.78C2.25-0.90 2.04-1.08 1.88-1.30C1.71-1.53 1.58-1.80 1.48-2.12C1.39-2.44 1.34-2.80 1.34-3.21C1.34-3.60 1.39-3.96 1.49-4.28C1.58-4.59 1.72-4.86 1.89-5.09C2.07-5.31 2.28-5.48 2.53-5.60C2.77-5.72 3.05-5.78 3.35-5.78C3.62-5.78 3.86-5.73 4.07-5.62C4.27-5.51 4.46-5.37 4.63-5.19L5.08-5.70C4.89-5.91 4.65-6.09 4.36-6.25C4.07-6.41 3.73-6.49 3.34-6.49C2.93-6.49 2.56-6.41 2.21-6.26C1.86-6.11 1.56-5.89 1.31-5.61C1.06-5.32 0.86-4.97 0.72-4.57C0.58-4.16 0.51-3.70 0.51-3.19ZM6.26-6.37L6.26-2.63C6.26-2.12 6.32-1.69 6.43-1.34C6.55-0.99 6.71-0.71 6.91-0.49C7.12-0.27 7.36-0.12 7.64-0.02C7.92 0.07 8.23 0.12 8.55 0.12C8.87 0.12 9.18 0.07 9.45-0.02C9.73-0.12 9.97-0.27 10.18-0.49C10.38-0.71 10.54-0.99 10.66-1.34C10.78-1.69 10.83-2.12 10.83-2.63L10.83-6.37L10.06-6.37L10.06-2.61C10.06-2.23 10.02-1.91 9.94-1.65C9.86-1.39 9.76-1.19 9.62-1.03C9.48-0.87 9.32-0.76 9.14-0.69C8.96-0.63 8.76-0.59 8.55-0.59C8.34-0.59 8.15-0.63 7.97-0.69C7.79-0.76 7.63-0.87 7.50-1.03C7.36-1.19 7.26-1.39 7.18-1.65C7.10-1.91 7.06-2.23 7.06-2.61L7.06-6.37ZM13.36-3.35L13.36-5.72L14.43-5.72C14.93-5.72 15.31-5.64 15.58-5.47C15.84-5.30 15.97-5.01 15.97-4.59C15.97-4.17 15.84-3.86 15.58-3.66C15.31-3.45 14.93-3.35 14.43-3.35ZM16.05 0L16.97 0L15.35-2.78C15.79-2.89 16.13-3.09 16.39-3.39C16.65-3.69 16.78-4.09 16.78-4.59C16.78-4.92 16.73-5.20 16.62-5.42C16.51-5.65 16.35-5.83 16.15-5.98C15.96-6.12 15.72-6.22 15.44-6.28C15.17-6.34 14.87-6.37 14.55-6.37L12.55-6.37L12.55 0L13.36 0L13.36-2.69L14.52-2.69ZM18.20-6.37L18.20 0L19.01 0L19.01-6.37ZM23.11 0.12C23.51 0.12 23.88 0.04 24.21-0.12C24.54-0.27 24.83-0.49 25.07-0.78C25.32-1.07 25.50-1.42 25.64-1.83C25.77-2.24 25.84-2.70 25.84-3.22C25.84-3.72 25.77-4.18 25.64-4.58C25.50-4.99 25.32-5.33 25.07-5.61C24.83-5.89 24.54-6.11 24.21-6.26C23.88-6.41 23.51-6.49 23.11-6.49C22.70-6.49 22.34-6.42 22.00-6.27C21.67-6.12 21.38-5.90 21.14-5.62C20.90-5.34 20.72-5.00 20.58-4.59C20.45-4.19 20.39-3.73 20.39-3.22C20.39-2.70 20.45-2.24 20.58-1.83C20.72-1.42 20.90-1.07 21.14-0.78C21.38-0.49 21.67-0.27 22.00-0.12C22.34 0.04 22.70 0.12 23.11 0.12ZM23.11-0.59C22.82-0.59 22.56-0.65 22.33-0.78C22.10-0.90 21.91-1.08 21.74-1.31C21.58-1.54 21.45-1.81 21.36-2.13C21.27-2.45 21.22-2.81 21.22-3.22C21.22-3.61 21.27-3.97 21.36-4.29C21.45-4.60 21.58-4.87 21.74-5.09C21.91-5.31 22.10-5.48 22.33-5.60C22.56-5.72 22.82-5.78 23.11-5.78C23.39-5.78 23.65-5.72 23.88-5.60C24.11-5.48 24.31-5.31 24.47-5.09C24.64-4.87 24.76-4.60 24.86-4.29C24.95-3.97 24.99-3.61 24.99-3.22C24.99-2.81 24.95-2.45 24.86-2.13C24.76-1.81 24.64-1.54 24.47-1.31C24.31-1.08 24.11-0.90 23.88-0.78C23.65-0.65 23.39-0.59 23.11-0.59ZM27.18-6.37L27.18-2.63C27.18-2.12 27.24-1.69 27.35-1.34C27.47-0.99 27.63-0.71 27.83-0.49C28.04-0.27 28.28-0.12 28.56-0.02C28.84 0.07 29.15 0.12 29.47 0.12C29.79 0.12 30.10 0.07 30.37-0.02C30.65-0.12 30.89-0.27 31.10-0.49C31.30-0.71 31.46-0.99 31.58-1.34C31.70-1.69 31.75-2.12 31.75-2.63L31.75-6.37L30.98-6.37L30.98-2.61C30.98-2.23 30.94-1.91 30.86-1.65C30.78-1.39 30.68-1.19 30.54-1.03C30.40-0.87 30.24-0.76 30.06-0.69C29.88-0.63 29.68-0.59 29.47-0.59C29.26-0.59 29.07-0.63 28.89-0.69C28.71-0.76 28.55-0.87 28.42-1.03C28.28-1.19 28.18-1.39 28.10-1.65C28.02-1.91 27.98-2.23 27.98-2.61L27.98-6.37ZM33.40-1.39L32.91-0.83C33.19-0.53 33.52-0.30 33.90-0.14C34.28 0.03 34.70 0.12 35.15 0.12C35.48 0.12 35.78 0.07 36.05-0.02C36.31-0.12 36.54-0.25 36.73-0.41C36.92-0.58 37.06-0.77 37.16-0.99C37.26-1.21 37.31-1.45 37.31-1.70C37.31-1.93 37.28-2.14 37.21-2.32C37.14-2.50 37.05-2.65 36.93-2.78C36.82-2.92 36.68-3.03 36.52-3.13C36.35-3.23 36.18-3.32 36.00-3.40L35.10-3.79C34.97-3.84 34.84-3.90 34.72-3.96C34.59-4.02 34.48-4.09 34.38-4.17C34.27-4.25 34.19-4.35 34.13-4.46C34.07-4.56 34.04-4.69 34.04-4.85C34.04-5.14 34.15-5.37 34.36-5.53C34.58-5.70 34.87-5.78 35.22-5.78C35.52-5.78 35.79-5.73 36.02-5.62C36.26-5.51 36.48-5.37 36.67-5.18L37.11-5.70C36.88-5.94 36.61-6.13 36.28-6.27C35.96-6.42 35.61-6.49 35.22-6.49C34.93-6.49 34.66-6.45 34.42-6.36C34.18-6.28 33.97-6.16 33.79-6.01C33.61-5.86 33.47-5.68 33.37-5.47C33.27-5.26 33.22-5.04 33.22-4.80C33.22-4.57 33.26-4.36 33.34-4.18C33.42-4.00 33.52-3.85 33.64-3.72C33.76-3.59 33.90-3.48 34.06-3.39C34.21-3.30 34.36-3.22 34.51-3.16L35.43-2.76C35.58-2.69 35.72-2.62 35.84-2.56C35.97-2.49 36.09-2.42 36.18-2.34C36.27-2.26 36.35-2.16 36.40-2.05C36.46-1.93 36.49-1.79 36.49-1.63C36.49-1.32 36.37-1.07 36.14-0.88C35.90-0.69 35.58-0.59 35.16-0.59C34.82-0.59 34.51-0.67 34.20-0.81C33.89-0.96 33.62-1.15 33.40-1.39ZM38.57-6.37L38.57 0L42.16 0L42.16-0.69L39.37-0.69L39.37-6.37ZM43.58-2.47L43.58 0L44.40 0L44.40-2.47L46.31-6.37L45.46-6.37L44.65-4.58C44.55-4.34 44.45-4.11 44.34-3.89C44.23-3.66 44.12-3.43 44.01-3.19L43.97-3.19C43.86-3.43 43.75-3.66 43.66-3.89C43.56-4.11 43.46-4.34 43.36-4.58L42.53-6.37L41.67-6.37ZM49.14-6.37L49.14 0L51.17 0C51.52 0 51.85-0.04 52.15-0.12C52.45-0.19 52.70-0.31 52.92-0.47C53.13-0.62 53.30-0.82 53.41-1.05C53.53-1.28 53.59-1.55 53.59-1.87C53.59-2.31 53.46-2.65 53.20-2.91C52.94-3.16 52.58-3.32 52.11-3.39L52.11-3.43C52.49-3.53 52.77-3.70 52.95-3.96C53.13-4.22 53.22-4.50 53.22-4.82C53.22-5.10 53.17-5.34 53.06-5.53C52.95-5.73 52.80-5.89 52.61-6.01C52.42-6.14 52.19-6.23 51.92-6.29C51.65-6.35 51.36-6.37 51.03-6.37ZM50.89-3.65L49.94-3.65L49.94-5.73L50.93-5.73C51.42-5.73 51.80-5.66 52.05-5.50C52.30-5.35 52.42-5.10 52.42-4.75C52.42-4.40 52.30-4.12 52.07-3.94C51.83-3.75 51.44-3.65 50.89-3.65ZM51.05-0.64L49.94-0.64L49.94-3.05L51.05-3.05C51.62-3.05 52.05-2.96 52.34-2.77C52.64-2.59 52.79-2.30 52.79-1.90C52.79-1.47 52.64-1.15 52.33-0.95C52.03-0.74 51.60-0.64 51.05-0.64ZM54.85-6.37L54.85 0L58.62 0L58.62-0.69L55.66-0.69L55.66-3.00L58.08-3.00L58.08-3.69L55.66-3.69L55.66-5.69L58.52-5.69L58.52-6.37ZM61.29-5.69L61.29 0L62.11 0L62.11-5.69L64.03-5.69L64.03-6.37L59.37-6.37L59.37-5.69ZM66.50-5.69L66.50 0L67.32 0L67.32-5.69L69.24-5.69L69.24-6.37L64.58-6.37L64.58-5.69ZM70.39-6.37L70.39 0L74.16 0L74.16-0.69L71.19-0.69L71.19-3.00L73.61-3.00L73.61-3.69L71.19-3.69L71.19-5.69L74.06-5.69L74.06-6.37ZM76.32-3.35L76.32-5.72L77.38-5.72C77.88-5.72 78.26-5.64 78.53-5.47C78.80-5.30 78.93-5.01 78.93-4.59C78.93-4.17 78.80-3.86 78.53-3.66C78.26-3.45 77.88-3.35 77.38-3.35ZM79.01 0L79.92 0L78.31-2.78C78.74-2.89 79.09-3.09 79.35-3.39C79.61-3.69 79.74-4.09 79.74-4.59C79.74-4.92 79.68-5.20 79.57-5.42C79.46-5.65 79.31-5.83 79.11-5.98C78.91-6.12 78.67-6.22 78.40-6.28C78.12-6.34 77.82-6.37 77.50-6.37L75.51-6.37L75.51 0L76.32 0L76.32-2.69L77.47-2.69ZM83.14-1.39L82.65-0.83C82.93-0.53 83.26-0.30 83.64-0.14C84.02 0.03 84.44 0.12 84.89 0.12C85.22 0.12 85.52 0.07 85.79-0.02C86.05-0.12 86.28-0.25 86.47-0.41C86.66-0.58 86.80-0.77 86.90-0.99C87.00-1.21 87.05-1.45 87.05-1.70C87.05-1.93 87.02-2.14 86.95-2.32C86.88-2.50 86.79-2.65 86.67-2.78C86.56-2.92 86.42-3.03 86.26-3.13C86.09-3.23 85.92-3.32 85.74-3.40L84.84-3.79C84.71-3.84 84.58-3.90 84.46-3.96C84.33-4.02 84.22-4.09 84.12-4.17C84.01-4.25 83.93-4.35 83.87-4.46C83.81-4.56 83.78-4.69 83.78-4.85C83.78-5.14 83.89-5.37 84.10-5.53C84.32-5.70 84.61-5.78 84.96-5.78C85.26-5.78 85.53-5.73 85.76-5.62C86.00-5.51 86.22-5.37 86.41-5.18L86.85-5.70C86.62-5.94 86.35-6.13 86.02-6.27C85.70-6.42 85.35-6.49 84.96-6.49C84.67-6.49 84.40-6.45 84.16-6.36C83.92-6.28 83.71-6.16 83.53-6.01C83.35-5.86 83.21-5.68 83.11-5.47C83.01-5.26 82.96-5.04 82.96-4.80C82.96-4.57 83.00-4.36 83.08-4.18C83.16-4.00 83.26-3.85 83.38-3.72C83.50-3.59 83.64-3.48 83.80-3.39C83.95-3.30 84.10-3.22 84.25-3.16L85.17-2.76C85.32-2.69 85.46-2.62 85.58-2.56C85.71-2.49 85.83-2.42 85.92-2.34C86.01-2.26 86.09-2.16 86.14-2.05C86.20-1.93 86.23-1.79 86.23-1.63C86.23-1.32 86.11-1.07 85.88-0.88C85.64-0.69 85.32-0.59 84.89-0.59C84.56-0.59 84.25-0.67 83.94-0.81C83.63-0.96 83.36-1.15 83.14-1.39ZM90.66 0.12C91.06 0.12 91.43 0.04 91.76-0.12C92.09-0.27 92.38-0.49 92.62-0.78C92.87-1.07 93.06-1.42 93.19-1.83C93.32-2.24 93.39-2.70 93.39-3.22C93.39-3.72 93.32-4.18 93.19-4.58C93.06-4.99 92.87-5.33 92.62-5.61C92.38-5.89 92.09-6.11 91.76-6.26C91.43-6.41 91.06-6.49 90.66-6.49C90.26-6.49 89.89-6.42 89.55-6.27C89.22-6.12 88.93-5.90 88.69-5.62C88.45-5.34 88.27-5.00 88.14-4.59C88.00-4.19 87.94-3.73 87.94-3.22C87.94-2.70 88.00-2.24 88.14-1.83C88.27-1.42 88.45-1.07 88.69-0.78C88.93-0.49 89.22-0.27 89.55-0.12C89.89 0.04 90.26 0.12 90.66 0.12ZM90.66-0.59C90.37-0.59 90.11-0.65 89.88-0.78C89.65-0.90 89.46-1.08 89.29-1.31C89.13-1.54 89.00-1.81 88.91-2.13C88.82-2.45 88.77-2.81 88.77-3.22C88.77-3.61 88.82-3.97 88.91-4.29C89.00-4.60 89.13-4.87 89.29-5.09C89.46-5.31 89.65-5.48 89.88-5.60C90.11-5.72 90.37-5.78 90.66-5.78C90.94-5.78 91.20-5.72 91.43-5.60C91.66-5.48 91.86-5.31 92.02-5.09C92.19-4.87 92.32-4.60 92.41-4.29C92.50-3.97 92.54-3.61 92.54-3.22C92.54-2.81 92.50-2.45 92.41-2.13C92.32-1.81 92.19-1.54 92.02-1.31C91.86-1.08 91.66-0.90 91.43-0.78C91.20-0.65 90.94-0.59 90.66-0.59ZM94.76-6.37L94.76 0L95.56 0L95.56-2.86L97.99-2.86L97.99-3.54L95.56-3.54L95.56-5.69L98.43-5.69L98.43-6.37ZM100.88-5.69L100.88 0L101.70 0L101.70-5.69L103.62-5.69L103.62-6.37L98.96-6.37L98.96-5.69ZM104.11-6.37L105.47 0L106.43 0L107.37-3.84C107.42-4.08 107.48-4.33 107.53-4.56C107.59-4.80 107.64-5.04 107.69-5.29L107.73-5.29C107.78-5.04 107.83-4.80 107.88-4.56C107.93-4.33 107.98-4.08 108.04-3.84L109.00 0L109.97 0L111.30-6.37L110.52-6.37L109.85-2.91C109.78-2.56 109.72-2.22 109.66-1.88C109.60-1.54 109.55-1.20 109.49-0.85L109.45-0.85C109.37-1.20 109.29-1.54 109.22-1.89C109.14-2.23 109.06-2.57 108.98-2.91L108.10-6.37L107.36-6.37L106.48-2.91C106.40-2.56 106.33-2.22 106.25-1.88C106.17-1.54 106.10-1.20 106.03-0.85L105.99-0.85C105.93-1.20 105.87-1.54 105.81-1.88C105.74-2.21 105.68-2.56 105.62-2.91L104.95-6.37ZM115.11-2.59L113.20-2.59L113.50-3.57C113.62-3.92 113.73-4.28 113.83-4.63C113.94-4.98 114.04-5.34 114.13-5.71L114.17-5.71C114.28-5.34 114.38-4.98 114.48-4.63C114.59-4.28 114.70-3.92 114.81-3.57ZM115.32-1.94L115.92 0L116.79 0L114.63-6.37L113.71-6.37L111.56 0L112.38 0L113.00-1.94ZM118.50-3.35L118.50-5.72L119.56-5.72C120.06-5.72 120.45-5.64 120.71-5.47C120.98-5.30 121.11-5.01 121.11-4.59C121.11-4.17 120.98-3.86 120.71-3.66C120.45-3.45 120.06-3.35 119.56-3.35ZM121.19 0L122.10 0L120.49-2.78C120.92-2.89 121.27-3.09 121.53-3.39C121.79-3.69 121.92-4.09 121.92-4.59C121.92-4.92 121.86-5.20 121.75-5.42C121.64-5.65 121.49-5.83 121.29-5.98C121.09-6.12 120.85-6.22 120.58-6.28C120.30-6.34 120.00-6.37 119.68-6.37L117.69-6.37L117.69 0L118.50 0L118.50-2.69L119.65-2.69ZM123.33-6.37L123.33 0L127.10 0L127.10-0.69L124.14-0.69L124.14-3.00L126.56-3.00L126.56-3.69L124.14-3.69L124.14-5.69L127.01-5.69L127.01-6.37ZM128.21-0.49C128.21-0.31 128.27-0.17 128.38-0.05C128.50 0.06 128.63 0.12 128.80 0.12C128.95 0.12 129.09 0.06 129.20-0.05C129.31-0.17 129.37-0.31 129.37-0.49C129.37-0.67 129.31-0.82 129.20-0.94C129.09-1.05 128.95-1.11 128.80-1.11C128.63-1.11 128.50-1.05 128.38-0.94C128.27-0.82 128.21-0.67 128.21-0.49Z" transform="translate(-0.5052694521264669, 6.490769115778459)"/></g></g></g></g></g></svg>